<svg width="95" height="100" viewBox="0 0 95 100" fill="none" xmlns="http://www.w3.org/2000/svg">
<path fill-rule="evenodd" clip-rule="evenodd" d="M56.5113 99.5742C66.1974 98.302 75.2986 94.2202 82.6906 87.8329L76.1529 80.2668C69.1405 86.3314 59.9987 90 50 90C27.9086 90 10 72.0914 10 50C10 27.9086 27.9086 10 50 10C61.2831 10 71.4751 14.6717 78.7472 22.1863L85.9339 15.2329C79.141 8.21193 70.44 3.33477 60.906 1.20391C51.372 -0.926956 41.4225 -0.218165 32.2869 3.24272C23.1512 6.70361 15.2295 12.765 9.50041 20.678C3.77132 28.591 0.485836 38.009 0.0498342 47.7685C-0.386167 57.528 2.04642 67.2015 7.04707 75.5939C12.0477 83.9862 19.3974 90.7298 28.188 94.9915C36.9787 99.2533 46.8253 100.846 56.5113 99.5742Z" fill="white"/>
<path fill-rule="evenodd" clip-rule="evenodd" d="M14.2692 32H58.2H68.2H75.1875V32.0003L75.292 32C86.1168 32 94.892 40.7752 94.892 51.6C94.892 62.4248 86.1168 71.2 75.292 71.2C75.2258 71.2 75.1597 71.1997 75.0937 71.199L68.2 71.2V85.6292C65.0815 87.2254 61.7259 88.4242 58.2 89.1587V42H39.2V88.525C35.6416 87.5295 32.2835 86.0543 29.2 84.1734V42H10.8002C11.5154 38.4764 12.6939 35.1209 14.2692 32ZM68.2 42H75.0937V42.002C75.1594 42.0007 75.2252 42 75.2912 42C80.5931 42 84.8912 46.2981 84.8912 51.6C84.8912 56.9019 80.5931 61.2 75.2912 61.2C75.2252 61.2 75.1594 61.1993 75.0937 61.198V61.2031H68.2V58.0712V45.1288V42Z" fill="#121212"/>
<path fill-rule="evenodd" clip-rule="evenodd" d="M14.2692 32H58.2H68.2H75.1875V32.0003L75.292 32C86.1168 32 94.892 40.7752 94.892 51.6C94.892 62.4248 86.1168 71.2 75.292 71.2C75.2258 71.2 75.1597 71.1997 75.0937 71.199L68.2 71.2V85.6292C65.0815 87.2254 61.7259 88.4242 58.2 89.1587V42H39.2V88.525C35.6416 87.5295 32.2835 86.0543 29.2 84.1734V42H10.8002C11.5154 38.4764 12.6939 35.1209 14.2692 32ZM68.2 42H75.0937V42.002C75.1594 42.0007 75.2252 42 75.2912 42C80.5931 42 84.8912 46.2981 84.8912 51.6C84.8912 56.9019 80.5931 61.2 75.2912 61.2C75.2252 61.2 75.1594 61.1993 75.0937 61.198V61.2031H68.2V58.0712V45.1288V42Z" fill="white"/>
</svg>
