<svg width="95" height="100" viewBox="0 0 95 100" fill="none" xmlns="http://www.w3.org/2000/svg">
<rect x="10" y="32" width="65.1875" height="10" fill="#1C2124"/>
<rect x="29.2" y="39.6" width="10" height="50.4" fill="#1C2124"/>
<rect x="58.2" y="32" width="10" height="58" fill="#1C2124"/>
<path fill-rule="evenodd" clip-rule="evenodd" d="M94.892 51.6C94.892 62.4248 86.1168 71.2 75.292 71.2C75.2258 71.2 75.1598 71.1997 75.0938 71.199V71.2H68.2V69.8776C67.1872 69.4843 66.2151 69.0093 65.292 68.4606V42H58.2C61.5596 36.0314 67.955 32 75.292 32C86.1168 32 94.892 40.7752 94.892 51.6ZM75.2912 61.2C80.5932 61.2 84.8912 56.9019 84.8912 51.6C84.8912 46.2981 80.5932 42 75.2912 42C75.2252 42 75.1594 42.0007 75.0938 42.002V42H68.2V45.1288C66.6417 46.8355 65.6912 49.1068 65.6912 51.6C65.6912 54.0932 66.6417 56.3645 68.2 58.0712V61.2031H75.0938V61.198C75.1594 61.1993 75.2252 61.2 75.2912 61.2Z" fill="#1C2124"/>
<path fill-rule="evenodd" clip-rule="evenodd" d="M56.5113 99.5742C66.1974 98.302 75.2986 94.2202 82.6906 87.8329L76.1529 80.2668C69.1405 86.3314 59.9987 90 50 90C27.9086 90 10 72.0914 10 50C10 27.9086 27.9086 10 50 10C61.2831 10 71.4751 14.6717 78.7472 22.1863L85.9339 15.2329C79.141 8.21193 70.44 3.33477 60.906 1.20391C51.372 -0.926956 41.4225 -0.218165 32.2869 3.24272C23.1512 6.70361 15.2295 12.765 9.50041 20.678C3.77132 28.591 0.485836 38.009 0.0498342 47.7685C-0.386167 57.528 2.04642 67.2015 7.04707 75.5939C12.0477 83.9862 19.3974 90.7298 28.188 94.9915C36.9787 99.2533 46.8253 100.846 56.5113 99.5742Z" fill="#1C2124"/>
</svg>
