<svg width="474" height="156" viewBox="0 0 474 156" fill="none" xmlns="http://www.w3.org/2000/svg">
<path d="M361.044 32.3323L350.687 42.6894C349.174 44.202 347.24 45.0353 345.262 45.1892C344.863 45.2458 344.456 45.275 344.041 45.275H318.169V36.6511H344.529L354.896 26.2846C356.485 24.6956 358.539 23.8563 360.62 23.7668C360.838 23.7329 361.061 23.7153 361.289 23.7153H378.536C378.75 23.7153 378.96 23.7309 379.165 23.7609C381.303 23.8111 383.425 24.6523 385.057 26.2844L395.419 36.6511H421.656V45.275H395.784C395.294 45.275 394.814 45.2342 394.347 45.1557C392.489 44.9373 390.689 44.1151 389.264 42.6892L378.903 32.3238C378.782 32.334 378.66 32.3392 378.536 32.3392H361.289L361.246 32.339L361.177 32.3378L361.144 32.3368L361.044 32.3323Z" fill="#6D44F5"/>
<path fill-rule="evenodd" clip-rule="evenodd" d="M369.913 101.33C381.82 101.33 391.472 91.6775 391.472 79.7704C391.472 67.8633 381.82 58.2107 369.913 58.2107C358.005 58.2107 348.353 67.8633 348.353 79.7704C348.353 91.6775 358.005 101.33 369.913 101.33ZM369.913 92.7062C377.057 92.7062 382.848 86.9146 382.848 79.7704C382.848 72.6261 377.057 66.8346 369.913 66.8346C362.768 66.8346 356.977 72.6261 356.977 79.7704C356.977 86.9146 362.768 92.7062 369.913 92.7062Z" fill="#6D44F5"/>
<path d="M309.546 36.6511H283.674V45.275H300.922V109.954C300.922 117.098 295.13 122.89 287.986 122.89C280.842 122.89 275.05 117.098 275.05 109.954H266.426C266.426 121.861 276.079 131.513 287.986 131.513C299.893 131.513 309.546 121.861 309.546 109.954V36.6511Z" fill="#6D44F5"/>
<path d="M430.279 23.7153H438.903V36.6511H456.151V45.275H438.903V109.954C438.903 117.098 444.695 122.89 451.839 122.89C458.983 122.89 464.775 117.098 464.775 109.954H473.399C473.399 121.861 463.746 131.513 451.839 131.513C439.932 131.513 430.279 121.861 430.279 109.954V23.7153Z" fill="#6D44F5"/>
<path d="M318.169 122.89C318.169 118.127 322.03 114.266 326.793 114.266H404.408L421.656 122.89L404.408 131.513H326.793C322.03 131.513 318.169 127.652 318.169 122.89Z" fill="#6D44F5"/>
<path d="M18.2811 43.0793C15.5905 43.0793 13.4172 42.3549 11.7615 40.9061C10.1057 39.3883 9.2778 37.491 9.2778 35.2143C9.2778 32.8686 10.1057 30.9714 11.7615 29.5226C13.4172 28.0048 15.5905 27.2459 18.2811 27.2459C20.9717 27.2459 23.145 28.0048 24.8007 29.5226C26.4565 31.0404 27.2844 32.9376 27.2844 35.2143C27.2844 37.491 26.4565 39.3883 24.8007 40.9061C23.145 42.3549 20.9717 43.0793 18.2811 43.0793ZM0.895413 123.695H5.03486C7.17358 123.695 8.69138 123.247 9.58826 122.35C10.5541 121.453 11.0371 119.901 11.0371 117.693V51.6686H25.6286V117.693C25.6286 130.111 19.385 136.32 6.89761 136.32H0.895413V123.695ZM65.3116 50.9442C70.8998 50.9442 75.9016 52.1171 80.3171 54.4628C84.8015 56.8084 88.32 60.2235 90.8727 64.7079C93.4253 69.1233 94.7016 74.3321 94.7016 80.3343C94.7016 86.3365 93.4253 91.5453 90.8727 95.9607C88.32 100.376 84.8015 103.791 80.3171 106.206C75.9016 108.552 70.8998 109.724 65.3116 109.724C59.7233 109.724 54.687 108.552 50.2026 106.206C45.7872 103.791 42.3031 100.376 39.7505 95.9607C37.1978 91.5453 35.9215 86.3365 35.9215 80.3343C35.9215 74.3321 37.1978 69.1233 39.7505 64.7079C42.3031 60.2235 45.7872 56.8084 50.2026 54.4628C54.687 52.1171 59.7233 50.9442 65.3116 50.9442ZM65.3116 63.5695C61.2411 63.5695 57.7916 65.0183 54.9629 67.916C52.1343 70.7446 50.72 74.884 50.72 80.3343C50.72 85.7846 52.1343 89.9585 54.9629 92.8561C57.7916 95.6848 61.2411 97.0991 65.3116 97.0991C69.382 97.0991 72.8316 95.6848 75.6602 92.8561C78.4888 89.9585 79.9031 85.7846 79.9031 80.3343C79.9031 74.884 78.4888 70.7446 75.6602 67.916C72.8316 65.0183 69.382 63.5695 65.3116 63.5695ZM135.646 96.4782V109H127.988C121.572 109 116.639 107.448 113.189 104.343C109.809 101.239 108.118 96.0642 108.118 88.8202V63.9835H100.15V51.6686H108.118V37.491H122.71V51.6686H135.542V63.9835H122.71V89.0272C122.71 91.7868 123.262 93.7185 124.366 94.8224C125.47 95.9262 127.332 96.4782 129.954 96.4782H135.646ZM218.252 109L207.076 95.9607C206.524 97.3406 206.041 98.4099 205.627 99.1688C204.385 102.342 202.212 104.895 199.107 106.827C196.003 108.759 192.381 109.724 188.241 109.724C183.619 109.724 179.548 108.759 176.03 106.827C172.58 104.895 169.924 102.273 168.061 98.9618C166.199 95.5813 165.267 91.7523 165.267 87.4749C165.267 83.2664 166.061 79.5754 167.647 76.4018C169.303 73.2283 171.511 70.7791 174.27 69.0543C177.099 67.2605 180.238 66.2947 183.688 66.1567L182.446 64.2939C181.066 62.3622 179.997 60.465 179.238 58.6022C178.479 56.6705 178.099 54.5317 178.099 52.1861C178.099 49.2194 178.858 46.4598 180.376 43.9072C181.963 41.2855 184.274 39.1813 187.31 37.5945C190.414 36.0077 194.105 35.2143 198.383 35.2143C204.523 35.2143 209.249 36.5941 212.56 39.3538C215.941 42.1134 218.114 45.6664 219.08 50.0128C219.77 52.0826 220.115 54.2903 220.115 56.636L220.011 58.6022H206.455C206.455 56.8774 206.386 55.7046 206.248 55.0837C206.179 52.6 205.489 50.7027 204.178 49.3919C202.867 48.0121 201.039 47.3222 198.693 47.3222C196.554 47.3222 194.864 47.9431 193.622 49.185C192.381 50.4268 191.76 51.9446 191.76 53.7383C191.76 55.3251 192.07 56.705 192.691 57.8778C193.312 59.0506 194.347 60.4994 195.796 62.2242L232.947 109H218.252ZM188.345 97.513C191.311 97.513 193.726 96.6161 195.589 94.8224C197.52 92.9596 198.486 90.5794 198.486 87.6818C198.486 84.6462 197.382 82.1281 195.175 80.1273C193.036 78.1266 190.483 77.1262 187.517 77.1262C184.688 77.1262 182.342 77.9886 180.48 79.7134C178.686 81.4382 177.789 83.8873 177.789 87.0609C177.789 90.2345 178.789 92.7872 180.79 94.7189C182.86 96.5817 185.378 97.513 188.345 97.513Z" fill="#6D44F5"/>
</svg>
