<svg width="200" height="200" viewBox="0 0 200 200" fill="none" xmlns="http://www.w3.org/2000/svg">
<rect width="200" height="200" fill="white"/>
<path d="M199.991 67.0295C199.991 111.235 199.99 155.392 200 199.549C200 199.917 199.917 200 199.549 200C133.183 199.99 66.8169 199.99 0.450668 200C0.0827907 200 -5.23747e-05 199.917 2.48356e-08 199.549C0.00945137 133.183 0.00945137 66.8169 2.48356e-08 0.450668C-5.23747e-05 0.0827911 0.0827904 -5.23747e-05 0.450668 2.48417e-08C66.8169 0.00945422 133.183 0.00945431 199.549 2.48417e-08C199.917 -5.23747e-05 200 0.0827703 200 0.450671C199.99 22.6272 199.991 44.8038 199.991 67.0295ZM185.517 32.9796C185.762 32.0921 185.974 31.1933 186.262 30.32C186.586 29.3383 186.45 28.3227 186.505 27.3309C186.555 26.4296 186.333 25.4995 186.135 24.6035C186.03 24.129 185.811 23.614 185.485 23.2663C184.476 22.1904 183.073 21.818 181.707 21.5304C180.521 21.2805 179.278 21.2539 178.058 21.2212C177.22 21.1989 176.379 21.3414 175.539 21.3987C174.91 21.4416 174.279 21.4603 173.65 21.5041C173.535 21.512 173.425 21.5898 173.313 21.6333C173.172 21.6877 173.032 21.7482 172.888 21.7917C172.304 21.9679 171.629 21.798 171.115 22.2547C171.076 22.2892 170.978 22.3038 170.935 22.2793C170.587 22.0812 170.291 22.299 169.975 22.3793C169.041 22.6157 168.093 22.8033 167.171 23.0774C165.806 23.4833 164.459 23.9489 163.102 24.3857C161.919 24.7669 160.668 25.0116 159.57 25.5616C158.605 26.0449 157.566 26.249 156.594 26.6784C155.144 27.3187 153.614 27.7755 152.151 28.3875C150.673 29.0055 149.233 29.7137 147.779 30.3893C146.723 30.8803 145.648 31.3385 144.628 31.8961C144.001 32.2389 143.302 32.3825 142.704 32.8508C141.949 33.442 141.014 33.8019 140.167 34.279C139.951 34.4009 139.795 34.6478 139.571 34.7358C138.486 35.1623 137.856 36.1064 137.105 36.8962C136.435 37.5999 135.868 38.4024 135.273 39.1744C135.13 39.3604 135.053 39.5978 134.945 39.8116C135.175 39.7584 135.409 39.7199 135.631 39.6455C135.729 39.6127 135.802 39.5068 135.887 39.4344C136.116 39.2377 136.338 39.0319 136.58 38.8516C136.635 38.8109 136.756 38.8595 136.846 38.867C136.808 38.9325 136.779 39.0068 136.729 39.0606C136.69 39.102 136.607 39.1044 136.573 39.1474C136.509 39.2281 136.466 39.3256 136.414 39.4162C136.51 39.3967 136.61 39.3908 136.7 39.3558C137.755 38.9424 138.808 38.5234 139.863 38.1083C141.1 37.6213 142.346 37.1545 143.574 36.6453C144.565 36.2344 145.539 35.7814 146.514 35.3324C147.558 34.8515 148.589 34.3416 149.636 33.8669C150.337 33.5488 151.063 33.2844 151.766 32.9703C152.981 32.4278 154.173 31.8317 155.4 31.3196C157.115 30.6039 158.856 29.9507 160.582 29.2597C162.237 28.5968 163.883 27.9107 165.54 27.2531C166.355 26.9298 167.18 26.6295 168.012 26.3512C169.464 25.8654 170.923 25.4033 172.381 24.9345C172.612 24.86 172.846 24.7822 173.084 24.7406C173.971 24.586 174.878 24.5122 175.744 24.2819C176.634 24.045 177.515 24.1421 178.401 24.1627C178.589 24.167 178.786 24.3378 178.957 24.4623C179.47 24.8362 179.607 25.4385 179.758 25.9898C179.909 26.5444 179.917 27.1398 179.97 27.719C180.017 28.2275 180.077 28.7395 180.06 29.2477C180.044 29.7619 179.944 30.2738 179.874 30.7858C179.779 31.4815 179.673 32.1758 179.582 32.872C179.481 33.6367 179.264 34.3524 178.904 35.0459C178.242 36.3216 177.677 37.6476 177.009 38.9194C176.547 39.7978 175.981 40.6215 175.458 41.4675C174.766 42.5877 174.071 43.706 173.377 44.825C172.24 46.6597 171.104 48.4955 169.963 50.3286C169.429 51.1876 168.898 52.0493 168.343 52.895C167.852 53.6442 167.316 54.3644 166.824 55.1128C166.106 56.2028 165.425 57.3169 164.7 58.4015C164.054 59.3663 163.364 60.3011 162.704 61.2564C162.126 62.094 161.591 62.9629 160.984 63.779C160.337 64.6505 159.622 65.4723 158.946 66.3233C157.97 67.5525 157.019 68.8017 156.026 70.0178C154.994 71.2829 153.865 72.4729 152.89 73.7796C151.823 75.2107 150.86 76.7216 149.9 78.2287C149.312 79.1515 148.837 80.1456 148.271 81.0833C147.849 81.7821 147.279 82.4007 146.923 83.1278C146.273 84.4548 145.339 85.5662 144.44 86.7088C143.952 87.3288 143.432 87.9233 142.923 88.526C142.011 89.6045 141.099 90.6829 140.181 91.7564C139.88 92.1078 139.548 92.432 139.256 92.7899C138.971 93.1388 138.745 93.5374 138.449 93.8744C137.748 94.6709 137.016 95.4402 136.304 96.227C135.446 97.1751 134.589 98.1246 133.744 99.0837C133.166 99.7388 132.626 100.428 132.038 101.073C130.755 102.477 129.454 103.865 128.154 105.255C127.832 105.599 127.467 105.904 127.16 106.26C126.532 106.991 125.97 107.782 125.309 108.48C123.836 110.037 122.324 111.557 120.814 113.079C120.528 113.367 120.147 113.561 119.866 113.853C119.2 114.545 118.583 115.284 117.919 115.976C117.132 116.796 116.333 117.606 115.508 118.386C114.376 119.455 113.218 120.494 112.065 121.54C111.676 121.893 111.281 122.239 110.871 122.567C109.915 123.331 108.939 124.071 107.988 124.841C107.299 125.399 106.646 126.001 105.961 126.564C104.755 127.555 103.537 128.53 102.327 129.516C101.399 130.272 100.487 131.049 99.5463 131.789C98.6638 132.482 97.749 133.134 96.8545 133.813C96.3295 134.211 95.8277 134.64 95.2951 135.027C94.6076 135.527 93.8883 135.983 93.2048 136.488C92.7592 136.817 92.362 137.211 91.9266 137.555C91.4126 137.961 90.874 138.336 90.3586 138.74C89.6793 139.272 89.019 139.829 88.3383 140.36C87.0545 141.361 85.763 142.353 84.4727 143.345C83.6424 143.984 82.8053 144.614 81.9772 145.255C81.3439 145.746 80.726 146.256 80.0899 146.743C79.634 147.092 79.1519 147.406 78.6948 147.754C77.698 148.511 76.7154 149.288 75.7163 150.042C74.7098 150.803 73.6874 151.542 72.678 152.298C72.2135 152.646 71.7719 153.025 71.3051 153.37C70.2297 154.163 69.1432 154.942 68.0652 155.732C67.2987 156.294 66.5392 156.865 65.7748 157.43C65.7275 157.464 65.663 157.475 65.6093 157.503C65.1368 157.744 64.6342 157.941 64.1986 158.237C62.8537 159.151 61.5396 160.11 60.203 161.036C59.559 161.482 58.8764 161.873 58.2379 162.327C56.9078 163.272 55.6105 164.264 54.2689 165.192C53.6844 165.596 53.0224 165.888 52.3982 166.236C51.8397 166.547 51.2979 166.891 50.7251 167.173C49.966 167.547 49.1867 167.88 48.4112 168.219C47.4976 168.619 46.5827 169.016 45.6602 169.395C45.3525 169.521 45.0074 169.556 44.7005 169.684C44.1425 169.916 43.6124 170.219 43.0474 170.43C42.649 170.579 42.2165 170.663 41.7919 170.711C40.7114 170.833 39.777 171.577 38.6384 171.439C38.584 171.433 38.5251 171.481 38.4661 171.493C37.9076 171.606 37.3525 171.752 36.7883 171.816C36.4501 171.854 36.0939 171.715 35.7516 171.739C34.6949 171.813 33.6412 171.93 32.5856 172.024C31.7792 172.095 30.9725 172.195 30.1646 172.21C29.3123 172.226 28.4585 172.148 27.605 172.128C27.4068 172.124 27.2025 172.233 27.0087 172.213C26.2297 172.134 25.4375 172.09 24.6827 171.903C24.2145 171.786 23.6817 171.712 23.3525 171.205C22.786 170.334 22.843 169.338 22.8052 168.399C22.7505 167.041 22.885 165.673 22.9804 164.312C23.0202 163.743 23.1443 163.177 23.2727 162.62C23.3641 162.223 23.5602 161.851 23.6512 161.454C23.9056 160.346 24.0787 159.217 24.379 158.122C24.7396 156.807 25.1774 155.512 25.6204 154.222C26.1164 152.777 26.6211 151.334 27.185 149.915C27.8378 148.273 28.5424 146.65 29.2577 145.034C29.6251 144.203 30.0482 143.396 30.4756 142.595C31.1334 141.361 31.8097 140.137 32.4925 138.916C32.7465 138.462 33.0225 138.018 33.322 137.593C33.5849 137.22 33.9145 136.894 34.1799 136.522C34.7804 135.682 35.3612 134.828 35.9465 133.976C36.2171 133.583 36.4796 133.184 36.7451 132.786C37.3873 131.826 38.0447 130.875 38.6651 129.901C39.0489 129.298 39.3177 128.616 39.7424 128.047C40.3941 127.174 41.1356 126.368 41.8393 125.534C41.8604 125.509 41.8906 125.491 41.9077 125.464C42.3019 124.842 42.6811 124.211 43.0919 123.601C43.4989 122.996 43.9931 122.444 44.349 121.812C44.8582 120.909 45.5315 120.14 46.1698 119.339C46.9441 118.367 47.7121 117.391 48.4961 116.427C49.2829 115.46 50.077 114.499 50.8851 113.55C51.4334 112.906 52.0129 112.288 52.5756 111.657C53.3519 110.785 54.1244 109.91 54.9015 109.039C55.0301 108.895 55.1826 108.772 55.3093 108.626C55.9235 107.92 56.523 107.201 57.1465 106.503C57.6757 105.911 58.0984 105.241 58.6979 104.688C59.1446 104.276 59.5163 103.758 59.9933 103.344C60.6564 102.768 60.9985 101.893 61.7553 101.395C61.79 101.372 61.8127 101.321 61.8276 101.279C62.0457 100.661 62.4467 100.193 62.9564 99.7853C63.1914 99.5974 63.3039 99.2624 63.5261 99.0511C64.0798 98.5247 64.6745 98.0417 65.2326 97.5196C65.5094 97.2606 65.7411 96.9534 65.9942 96.6689C66.2691 96.36 66.5453 96.0523 66.8207 95.7439C66.8972 95.6583 66.9639 95.5614 67.0509 95.4884C67.2306 95.3376 67.4459 95.2223 67.6018 95.0515C67.985 94.6318 68.3197 94.1663 68.7166 93.7611C69.2665 93.1996 69.8647 92.6858 70.4257 92.1348C71.3181 91.2583 72.1905 90.3615 73.0832 89.4853C73.8661 88.7168 74.665 87.9646 75.4575 87.2058C75.6231 87.0473 75.7957 86.8958 75.9578 86.7338C76.1157 86.5761 76.2527 86.3961 76.4189 86.2486C76.8808 85.8387 77.4095 85.4882 77.8029 85.0223C78.1021 84.6679 78.3528 84.3156 78.7831 84.0882C79.0834 83.9296 79.322 83.6412 79.5641 83.3878C80.1763 82.7471 80.6481 81.9647 81.4881 81.5562C81.6953 81.4554 81.9274 81.2991 82.0279 81.1058C82.3341 80.5166 82.7188 80.0681 83.4192 79.975C83.4905 79.9656 83.554 79.8615 83.612 79.7935C83.8896 79.4678 84.1029 79.0239 84.4535 78.8383C85.0178 78.5397 85.4417 78.1623 85.819 77.6558C86.1112 77.2634 86.4092 76.8291 86.9906 76.7287C87.2362 76.6862 87.4578 76.4439 87.6671 76.2651C88.0434 75.9437 88.3967 75.5956 88.7697 75.2701C89.1756 74.9158 89.5936 74.5754 90.005 74.2274C90.4414 73.8583 90.8698 73.4796 91.313 73.1191C92.1309 72.454 92.9608 71.8037 93.7786 71.1385C94.4493 70.5931 95.1012 70.0241 95.7788 69.4875C96.0908 69.2404 96.4598 69.0659 96.7763 68.8237C97.7601 68.071 98.7202 67.2871 99.7123 66.5457C100.139 66.2268 100.632 65.9978 101.077 65.7014C101.644 65.3235 102.182 64.9031 102.751 64.5289C103.842 63.812 104.946 63.1168 106.043 62.4085C106.791 61.9245 107.526 61.4177 108.285 60.9504C108.959 60.5354 109.649 60.144 110.349 59.7732C110.95 59.4544 111.58 59.1903 112.185 58.8798C112.444 58.7471 112.662 58.535 112.919 58.3982C114.138 57.7503 115.412 57.191 116.566 56.4439C117.109 56.0922 117.63 55.7197 118.222 55.4481C119.775 54.7357 121.314 53.9913 122.876 53.298C124.173 52.7218 125.481 52.1604 126.811 51.665C128.354 51.0901 129.936 50.6277 131.565 50.3503C132.225 50.2379 132.887 50.0986 133.553 50.0708C134.062 50.0496 134.609 50.0972 135.083 50.2686C135.984 50.594 136.489 51.3801 136.571 52.2648C136.689 53.5352 136.656 54.8276 136.587 56.1051C136.499 57.7256 135.951 59.2497 135.365 60.7455C134.907 61.9124 134.368 63.0473 133.852 64.1907C133.404 65.183 132.956 66.1763 132.474 67.1522C132.104 67.9008 131.663 68.614 131.285 69.359C130.703 70.5065 130.171 71.6802 129.574 72.8196C129.002 73.9108 128.403 74.9903 127.762 76.0423C127.035 77.2359 126.271 78.4088 125.477 79.5594C125.11 80.0914 124.634 80.5477 124.21 81.0409C124.067 81.2082 123.94 81.391 123.792 81.5534C122.675 82.7736 121.546 83.9832 120.436 85.2104C119.396 86.3607 118.392 87.5435 117.34 88.6832C116.644 89.4378 115.881 90.1302 115.171 90.8723C114.722 91.3415 114.329 91.8636 113.885 92.3386C113.422 92.8342 112.923 93.2954 112.452 93.7832C112.06 94.1882 111.71 94.6351 111.3 95.0195C110.139 96.1087 108.954 97.171 107.786 98.2531C107.393 98.6178 107.036 99.0228 106.641 99.3854C106.353 99.65 106.013 99.8582 105.724 100.122C105.338 100.475 104.998 100.879 104.607 101.225C103.388 102.299 102.156 103.357 100.927 104.42C100.218 105.034 99.517 105.66 98.792 106.256C97.6244 107.216 96.4424 108.158 95.2622 109.103C94.3177 109.859 93.3971 110.649 92.4118 111.348C91.0814 112.292 89.6915 113.151 88.3414 114.068C86.8452 115.084 85.3686 116.128 83.8763 117.15C83.1784 117.628 82.4826 118.114 81.7517 118.537C80.9124 119.023 80.0389 119.451 79.1736 119.891C78.2692 120.351 77.3673 120.818 76.4441 121.238C75.8401 121.513 75.1634 121.642 74.587 121.959C74.0196 122.271 73.445 122.289 72.8518 122.256C72.7359 122.25 72.5147 121.969 72.5428 121.874C72.8524 120.828 73.1506 119.773 73.5558 118.763C73.9097 117.88 74.3655 117.033 74.8316 116.202C75.4364 115.123 76.0882 114.07 76.7343 113.015C77.3781 111.964 78.0471 110.93 78.9158 110.041C79.3988 109.547 79.8741 109.044 80.3311 108.526C80.8763 107.907 81.3836 107.255 81.9341 106.642C82.5157 105.994 83.1305 105.376 83.7278 104.742C84.7448 103.662 85.7551 102.576 86.7772 101.501C87.2258 101.029 87.6732 100.551 88.1617 100.122C89.2351 99.1798 90.3322 98.2642 91.4237 97.3424C92.1229 96.7519 92.826 96.166 93.5332 95.5852C94.4838 94.8045 95.4536 94.0463 96.3883 93.2471C96.8611 92.8427 96.7396 92.4665 96.1593 92.2422C95.4996 91.9872 94.8697 92.2399 94.3036 92.4377C93.1087 92.8553 91.9465 93.3845 90.8103 93.9474C89.4025 94.6448 88.156 95.6074 86.9664 96.62C85.8237 97.5927 84.7696 98.6693 83.67 99.6932C83.4042 99.9406 83.114 100.162 82.8321 100.392C82.0378 101.04 81.2149 101.655 80.4544 102.341C79.7062 103.015 79.0207 103.758 78.3076 104.471C77.6389 105.14 76.9693 105.808 76.3016 106.478C74.8596 107.924 73.3488 109.31 72.1751 111C71.3653 112.166 70.5357 113.321 69.791 114.528C69.2921 115.337 68.9329 116.231 68.4997 117.081C67.9834 118.095 67.4311 119.091 66.9428 120.117C66.7429 120.537 66.5386 121.027 66.5703 121.468C66.6153 122.094 66.8008 122.738 67.0622 123.313C67.5064 124.29 68.3926 124.746 69.4078 124.915C70.2593 125.057 71.1218 125.155 71.9833 125.211C73.5424 125.313 75.0901 125.177 76.5866 124.722C77.3201 124.498 78.0041 124.117 78.7265 123.851C79.564 123.543 80.4496 123.362 81.2142 122.866C81.443 122.718 81.6892 122.595 81.9337 122.472C82.8817 121.998 83.8525 121.564 84.7749 121.045C85.4454 120.667 86.041 120.159 86.6938 119.746C87.023 119.539 87.4277 119.451 87.7581 119.245C88.2959 118.909 88.793 118.508 89.3216 118.157C89.87 117.792 90.4584 117.484 90.9886 117.095C91.9958 116.357 92.9663 115.569 93.9667 114.821C94.7618 114.227 95.5835 113.668 96.3841 113.081C96.9514 112.665 97.5125 112.239 98.0599 111.797C99.1532 110.915 100.237 110.021 101.321 109.128C101.92 108.635 102.523 108.145 103.105 107.633C103.624 107.177 104.107 106.68 104.626 106.224C105.208 105.712 105.822 105.236 106.407 104.726C107.091 104.128 107.76 103.513 108.431 102.901C109.961 101.506 111.49 100.109 113.013 98.7065C113.174 98.5587 113.283 98.3562 113.434 98.197C114.303 97.2841 115.507 96.7775 116.272 95.7024C116.734 95.0538 117.514 94.6378 118.122 94.0862C118.854 93.4226 119.59 92.7577 120.263 92.0359C121.151 91.0831 121.966 90.0628 122.837 89.0945C123.325 88.5525 123.867 88.0585 124.381 87.5403C124.993 86.9241 125.374 86.0891 126.171 85.6462C126.23 85.6135 126.254 85.5197 126.298 85.4567C126.696 84.8853 127.088 84.31 127.494 83.7446C127.912 83.1619 128.189 82.4716 128.801 82.033C128.877 81.9782 128.897 81.8475 128.948 81.7544C129.339 81.0334 129.706 80.2972 130.135 79.5989C130.365 79.2245 130.722 78.9305 130.986 78.5741C131.551 77.8117 131.753 76.8623 132.354 76.0899C133.001 75.2582 133.443 74.2635 133.948 73.3256C134.617 72.0836 135.251 70.8226 135.917 69.5793C136.392 68.6945 136.935 67.8446 137.377 66.9448C138.111 65.4523 138.828 63.9488 139.477 62.4181C139.954 61.2917 140.341 60.1239 140.712 58.9568C140.957 58.1863 141.15 57.3921 141.283 56.5946C141.494 55.3305 141.887 54.0889 141.804 52.7835C141.791 52.5737 141.77 52.3515 141.821 52.1526C142.221 50.5931 141.562 49.1623 140.13 48.5302C139.489 48.2472 138.889 47.9044 138.137 47.8728C137.173 47.8325 136.218 47.5447 135.256 47.5245C134.026 47.4986 132.792 47.6324 131.56 47.7007C131.502 47.704 131.447 47.7439 131.389 47.7584C130.543 47.9682 129.699 48.1847 128.851 48.3834C127.836 48.6212 126.804 48.7975 125.805 49.088C125.109 49.2903 124.482 49.7176 123.73 49.7623C123.658 49.7665 123.589 49.8145 123.518 49.8405C123.234 49.9446 122.952 50.0549 122.665 50.1496C122.434 50.2257 122.186 50.2576 121.964 50.3525C121.227 50.6676 120.506 51.0185 119.766 51.3242C119.151 51.5779 118.516 51.7801 117.895 52.0187C117.5 52.1703 117.111 52.339 116.726 52.5143C116.396 52.6649 116.066 52.8218 115.751 53.0004C114.968 53.4431 114.236 54.0276 113.401 54.3105C112.724 54.5401 112.134 54.9015 111.512 55.2022C110.431 55.7242 109.402 56.3534 108.362 56.956C107.673 57.3547 107.011 57.7972 106.323 58.1972C105.891 58.4484 105.424 58.6389 104.993 58.8912C104.686 59.0709 104.424 59.327 104.122 59.5165C103.111 60.15 102.074 60.7445 101.077 61.399C99.5426 62.4058 98.0258 63.4398 96.5147 64.4813C95.2773 65.3341 94.0607 66.217 92.8318 67.0821C91.9717 67.6876 91.1024 68.2802 90.2443 68.8884C89.3073 69.5527 88.3495 70.1922 87.4542 70.9093C86.5466 71.6362 85.7161 72.4588 84.8299 73.2137C83.9532 73.9603 83.0509 74.677 82.1563 75.4025C81.5598 75.8862 80.9572 76.3625 80.3573 76.8421C80.3082 76.8813 80.2563 76.9171 80.2096 76.9589C79.5211 77.5737 78.834 78.1902 78.1444 78.8038C78.015 78.9189 77.8679 79.0147 77.7424 79.1336C77.0152 79.8227 76.3046 80.5298 75.5646 81.2047C74.3223 82.3378 73.0537 83.442 71.8135 84.5772C71.2513 85.092 70.7366 85.6583 70.1896 86.1902C69.4245 86.9342 68.6423 87.6608 67.8817 88.4093C67.541 88.7447 67.2552 89.1366 66.9085 89.4648C66.3299 90.0125 65.7025 90.5094 65.1338 91.0666C64.7507 91.442 64.458 91.9089 64.0805 92.2911C63.4458 92.9337 62.7674 93.5331 62.1252 94.1688C61.9083 94.3835 61.7679 94.6751 61.5527 94.8921C61.2383 95.2091 60.8625 95.4668 60.5594 95.7929C60.151 96.2322 59.8061 96.7308 59.3961 97.1683C59.1643 97.4156 58.809 97.5512 58.5908 97.8066C57.4311 99.164 56.3248 100.568 55.1465 101.909C53.9558 103.263 52.7001 104.561 51.4779 105.888C50.8494 106.571 50.2211 107.254 49.6118 107.953C48.6198 109.092 47.6516 110.251 46.6576 111.388C46.0022 112.137 45.3134 112.858 44.6515 113.602C44.4345 113.846 44.2585 114.126 44.0578 114.384C43.7019 114.843 43.3666 115.321 42.9772 115.749C42.3798 116.407 41.7308 117.017 41.1287 117.671C40.7445 118.088 40.4081 118.548 40.045 118.985C39.8329 119.24 39.6077 119.485 39.3934 119.738C38.6866 120.573 37.9752 121.404 37.2788 122.248C36.7586 122.878 36.246 123.516 35.7542 124.168C35.3637 124.686 35.0188 125.239 34.6378 125.764C34.1257 126.471 33.5789 127.153 33.0827 127.87C32.4611 128.768 31.8639 129.683 31.2785 130.605C30.8202 131.327 30.3752 132.059 29.9634 132.808C29.6727 133.337 29.4905 133.927 29.1844 134.446C28.5071 135.593 27.7331 136.685 27.0885 137.849C26.119 139.6 25.2155 141.388 24.3057 143.172C23.7625 144.236 23.2548 145.32 22.7417 146.4C21.9953 147.971 21.2651 149.55 20.5145 151.119C20.1746 151.83 19.7564 152.506 19.4578 153.233C19.1762 153.918 18.9984 154.646 18.7868 155.359C18.4105 156.626 18.0104 157.888 17.6809 159.168C17.3407 160.489 17.0997 161.835 16.7653 163.158C16.4542 164.389 16.2729 165.636 16.2094 166.897C16.1616 167.849 16.1352 168.811 16.221 169.757C16.2866 170.481 16.4399 171.233 16.7367 171.891C17.2658 173.063 18.3899 173.667 19.4487 174.266C20.2442 174.717 21.1204 175.004 22.0582 175.073C23.5322 175.181 25.0012 175.367 26.4764 175.447C27.6234 175.509 28.7767 175.448 29.9269 175.463C30.666 175.474 31.4045 175.551 32.1432 175.55C32.9203 175.55 33.6976 175.497 34.4744 175.458C35.7068 175.397 36.9393 175.336 38.1707 175.258C38.5096 175.236 38.8448 175.154 39.1812 175.096C39.9899 174.956 40.7971 174.807 41.6072 174.677C42.2843 174.567 42.9694 174.502 43.642 174.371C44.0871 174.285 44.5129 174.104 44.9537 173.99C45.9743 173.726 47.0109 173.518 48.0187 173.213C49.4958 172.767 50.9516 172.259 52.3403 171.566C53.4623 171.005 54.6296 170.536 55.7573 169.987C56.237 169.753 56.6561 169.399 57.1222 169.133C57.9804 168.644 58.8765 168.218 59.7133 167.696C60.6047 167.14 61.4426 166.499 62.3103 165.905C62.6514 165.671 63.0104 165.464 63.3603 165.243C63.9829 164.851 64.6086 164.463 65.2259 164.062C66.0004 163.56 66.7664 163.044 67.5393 162.539C67.7692 162.388 68.0104 162.256 68.2461 162.114C68.6652 161.862 69.088 161.616 69.5012 161.355C69.6984 161.231 69.866 161.058 70.0664 160.94C70.7096 160.562 71.3633 160.202 72.0089 159.828C72.091 159.781 72.1435 159.685 72.2201 159.625C72.3768 159.501 72.5326 159.373 72.7038 159.273C72.8323 159.197 73.0063 159.191 73.1219 159.104C73.6107 158.734 74.0865 158.347 74.5645 157.963C74.8334 157.747 75.0806 157.5 75.367 157.311C75.9031 156.959 76.4654 156.646 77.007 156.301C77.218 156.167 77.399 155.986 77.6001 155.835C78.2106 155.376 78.8308 154.93 79.4324 154.46C79.5889 154.338 79.6624 154.102 79.8245 153.995C80.1569 153.776 80.5324 153.623 80.8732 153.414C81.1379 153.253 81.3672 153.034 81.6294 152.867C82.2254 152.488 82.8704 152.173 83.2051 151.491C83.2585 151.382 83.3747 151.288 83.4838 151.226C84.1308 150.856 84.8094 150.535 85.4289 150.125C86.1283 149.662 86.7783 149.124 87.4462 148.614C88.0165 148.178 88.5801 147.734 89.1499 147.298C89.6954 146.88 90.2544 146.479 90.791 146.051C91.6519 145.363 92.5252 144.687 93.3436 143.951C93.9409 143.414 94.7525 143.188 95.2572 142.506C95.4672 142.223 95.9181 142.131 96.2147 141.896C96.8731 141.373 97.4461 140.717 98.1611 140.299C98.8685 139.885 99.2471 139.169 99.9331 138.739C100.727 138.242 101.408 137.563 102.139 136.966C102.272 136.857 102.518 136.768 102.53 136.651C102.58 136.187 102.956 136.235 103.234 136.1C103.425 136.007 103.574 135.82 103.726 135.66C103.854 135.527 103.969 135.243 104.073 135.251C104.417 135.276 104.453 135.012 104.625 134.849C104.953 134.54 105.357 134.312 105.729 134.05C106.011 133.851 106.299 133.658 106.567 133.441C106.602 133.413 106.567 133.236 106.512 133.172C106.393 133.032 106.381 133.047 106.541 132.97C106.977 132.76 107.431 132.577 107.84 132.322C108.037 132.199 108.44 132.124 108.249 131.702C108.235 131.671 108.295 131.581 108.341 131.552C108.639 131.366 108.932 131.167 109.246 131.012C110.529 130.375 111.427 129.238 112.596 128.448C113.108 128.101 113.516 127.603 113.984 127.188C114.131 127.058 114.352 127.006 114.483 126.866C115.16 126.149 115.922 125.536 116.705 124.942C117.046 124.683 117.352 124.377 117.666 124.083C117.903 123.862 118.137 123.636 118.353 123.394C118.56 123.163 118.75 122.702 118.935 122.708C119.388 122.723 119.539 122.434 119.759 122.187C120.231 121.657 120.872 121.267 121.122 120.545C121.156 120.446 121.304 120.337 121.412 120.322C121.75 120.274 122.326 119.882 122.48 119.613C122.567 119.46 122.724 119.325 122.88 119.239C123.368 118.971 123.753 118.639 124.059 118.145C124.497 117.44 124.958 116.725 125.857 116.455C126.111 116.379 126.287 116.038 126.493 115.814C126.676 115.616 126.851 115.41 127.032 115.211C127.075 115.163 127.138 115.133 127.18 115.085C127.766 114.396 128.334 113.691 128.942 113.022C129.178 112.762 129.521 112.602 129.779 112.357C130.342 111.823 130.873 111.255 131.435 110.719C131.635 110.528 131.922 110.424 132.106 110.223C132.805 109.457 133.477 108.667 134.16 107.888C134.642 107.337 135.125 106.788 135.611 106.241C135.92 105.893 136.231 105.547 136.548 105.206C137.075 104.64 137.695 104.139 138.119 103.505C139.011 102.173 140.272 101.133 141.054 99.7215C141.082 99.6717 141.157 99.6503 141.2 99.6066C141.696 99.1107 142.212 98.6323 142.678 98.1099C143.074 97.6675 143.393 97.1584 143.78 96.7071C144.145 96.2808 144.601 95.9273 144.931 95.478C145.497 94.7058 146.04 93.9247 146.727 93.2447C147.36 92.6177 147.974 91.9613 148.516 91.256C149.374 90.1396 150.173 88.9776 150.981 87.8233C151.528 87.0406 152.037 86.2308 152.582 85.4467C153.088 84.7199 153.627 84.0162 154.139 83.2935C154.971 82.1189 155.805 80.9451 156.615 79.7556C157.186 78.9181 157.638 77.9872 158.286 77.2176C159.698 75.5389 160.749 73.6318 161.909 71.7932C162.432 70.9658 162.904 70.1062 163.445 69.2915C163.986 68.4772 164.593 67.7071 165.153 66.9056C165.737 66.0713 166.282 65.2096 166.879 64.385C167.286 63.8235 167.787 63.3301 168.183 62.762C168.815 61.8548 169.382 60.9031 169.999 59.985C170.466 59.2902 170.969 58.6205 171.451 57.9359C171.843 57.3798 172.254 56.8348 172.608 56.2553C173.316 55.0968 173.971 53.9062 174.688 52.7532C174.992 52.2631 175.439 51.8613 175.745 51.3723C176.557 50.0781 177.332 48.7615 178.111 47.4475C178.71 46.4379 179.305 45.4253 179.879 44.4016C180.384 43.5013 180.809 42.5525 181.36 41.6824C181.95 40.7515 182.596 39.8622 182.867 38.7709C182.882 38.7129 182.906 38.6551 182.937 38.6037C183.289 38.0133 183.677 37.4414 183.987 36.83C184.322 36.1711 184.604 35.483 184.872 34.7936C185.098 34.2158 185.272 33.6178 185.517 32.9796Z" fill="#162B5B"/>
<path d="M54.7188 24.4375H40.0938V65H34.125V24.4375H19.5312V19.5H54.7188V24.4375Z" fill="white"/>
<path d="M176.75 165.562C176.188 170.375 174.406 174.094 171.406 176.719C168.427 179.323 164.458 180.625 159.5 180.625C154.125 180.625 149.812 178.698 146.562 174.844C143.333 170.99 141.719 165.833 141.719 159.375V155C141.719 150.771 142.469 147.052 143.969 143.844C145.49 140.635 147.635 138.177 150.406 136.469C153.177 134.74 156.385 133.875 160.031 133.875C164.865 133.875 168.74 135.229 171.656 137.938C174.573 140.625 176.271 144.354 176.75 149.125H170.719C170.198 145.5 169.062 142.875 167.312 141.25C165.583 139.625 163.156 138.812 160.031 138.812C156.198 138.812 153.188 140.229 151 143.062C148.833 145.896 147.75 149.927 147.75 155.156V159.562C147.75 164.5 148.781 168.427 150.844 171.344C152.906 174.26 155.792 175.719 159.5 175.719C162.833 175.719 165.385 174.969 167.156 173.469C168.948 171.948 170.135 169.312 170.719 165.562H176.75Z" fill="white"/>
</svg>
