<svg width="1004" height="440" viewBox="0 0 1004 440" fill="none" xmlns="http://www.w3.org/2000/svg">
<rect x="256" y="377" width="488" height="58" rx="7" stroke="white" stroke-width="2"/>
<rect x="1" y="377" width="115" height="58" rx="7" stroke="white" stroke-width="2"/>
<rect x="1" y="189" width="115" height="58" rx="7" stroke="white" stroke-width="2"/>
<rect x="1" y="95" width="115" height="58" rx="7" stroke="white" stroke-width="2"/>
<rect x="903" y="189" width="96" height="58" rx="7" stroke="white" stroke-width="2"/>
<rect x="884" y="1" width="115" height="58" rx="7" stroke="white" stroke-width="2"/>
<rect x="904" y="95" width="95" height="58" rx="7" stroke="white" stroke-width="2"/>
<rect x="1" y="1" width="95" height="58" rx="7" stroke="white" stroke-width="2"/>
<rect x="119" y="1" width="63" height="58" rx="7" stroke="white" stroke-width="2"/>
<rect x="204" y="1" width="63" height="58" rx="7" stroke="white" stroke-width="2"/>
<rect x="289" y="1" width="63" height="58" rx="7" stroke="white" stroke-width="2"/>
<rect x="374" y="1" width="63" height="58" rx="7" stroke="white" stroke-width="2"/>
<rect x="459" y="1" width="63" height="58" rx="7" stroke="white" stroke-width="2"/>
<rect x="544" y="1" width="63" height="58" rx="7" stroke="white" stroke-width="2"/>
<rect x="629" y="1" width="63" height="58" rx="7" stroke="white" stroke-width="2"/>
<rect x="714" y="1" width="63" height="58" rx="7" stroke="white" stroke-width="2"/>
<rect x="138" y="95" width="63" height="58" rx="7" stroke="white" stroke-width="2"/>
<rect x="223" y="95" width="63" height="58" rx="7" stroke="white" stroke-width="2"/>
<rect x="308" y="95" width="63" height="58" rx="7" stroke="white" stroke-width="2"/>
<rect x="393" y="95" width="63" height="58" rx="7" stroke="white" stroke-width="2"/>
<rect x="478" y="95" width="63" height="58" rx="7" stroke="white" stroke-width="2"/>
<rect x="563" y="95" width="63" height="58" rx="7" stroke="white" stroke-width="2"/>
<rect x="648" y="95" width="63" height="58" rx="7" stroke="white" stroke-width="2"/>
<rect x="733" y="95" width="63" height="58" rx="7" stroke="white" stroke-width="2"/>
<rect x="138" y="189" width="63" height="58" rx="7" stroke="white" stroke-width="2"/>
<rect x="223" y="189" width="63" height="58" rx="7" stroke="white" stroke-width="2"/>
<rect x="308" y="189" width="63" height="58" rx="7" stroke="white" stroke-width="2"/>
<rect x="393" y="189" width="63" height="58" rx="7" stroke="white" stroke-width="2"/>
<rect x="478" y="189" width="63" height="58" rx="7" stroke="white" stroke-width="2"/>
<rect x="563" y="189" width="63" height="58" rx="7" stroke="white" stroke-width="2"/>
<rect x="648" y="189" width="63" height="58" rx="7" stroke="white" stroke-width="2"/>
<rect x="733" y="189" width="63" height="58" rx="7" stroke="white" stroke-width="2"/>
<rect x="818" y="189" width="63" height="58" rx="7" stroke="white" stroke-width="2"/>
<rect x="818" y="95" width="63" height="58" rx="7" stroke="white" stroke-width="2"/>
<rect x="171" y="283" width="63" height="58" rx="7" stroke="white" stroke-width="2"/>
<rect x="256" y="283" width="63" height="58" rx="7" stroke="white" stroke-width="2"/>
<rect x="341" y="283" width="63" height="58" rx="7" stroke="white" stroke-width="2"/>
<rect x="426" y="283" width="63" height="58" rx="7" stroke="white" stroke-width="2"/>
<rect x="511" y="283" width="63" height="58" rx="7" stroke="white" stroke-width="2"/>
<rect x="596" y="283" width="63" height="58" rx="7" stroke="white" stroke-width="2"/>
<rect x="681" y="283" width="63" height="58" rx="7" stroke="white" stroke-width="2"/>
<rect x="766" y="283" width="63" height="58" rx="7" stroke="white" stroke-width="2"/>
<rect x="799" y="1" width="63" height="58" rx="7" stroke="white" stroke-width="2"/>
<rect x="884" y="377" width="115" height="58" rx="7" stroke="white" stroke-width="2"/>
<rect x="766" y="377" width="96" height="58" rx="7" stroke="white" stroke-width="2"/>
<rect x="138" y="377" width="96" height="58" rx="7" stroke="white" stroke-width="2"/>
<rect x="851" y="283" width="148" height="58" rx="7" stroke="white" stroke-width="2"/>
<rect x="1" y="283" width="148" height="58" rx="7" stroke="white" stroke-width="2"/>
<rect x="260" y="381" width="488" height="58" rx="7" stroke="#242424" stroke-width="2"/>
<rect x="3" y="381" width="115" height="58" rx="7" stroke="#242424" stroke-width="2"/>
<rect x="3" y="192" width="115" height="58" rx="7" stroke="#242424" stroke-width="2"/>
<rect x="3" y="98" width="115" height="58" rx="7" stroke="#242424" stroke-width="2"/>
<rect x="907" y="192" width="96" height="58" rx="7" stroke="#242424" stroke-width="2"/>
<rect x="888" y="3" width="115" height="58" rx="7" stroke="#242424" stroke-width="2"/>
<rect x="908" y="98" width="95" height="58" rx="7" stroke="#242424" stroke-width="2"/>
<rect x="3" y="3" width="95" height="58" rx="7" stroke="#242424" stroke-width="2"/>
<rect x="122" y="3" width="63" height="58" rx="7" stroke="#242424" stroke-width="2"/>
<rect x="207" y="3" width="63" height="58" rx="7" stroke="#242424" stroke-width="2"/>
<rect x="292" y="3" width="63" height="58" rx="7" stroke="#242424" stroke-width="2"/>
<rect x="377" y="3" width="63" height="58" rx="7" stroke="#242424" stroke-width="2"/>
<rect x="463" y="3" width="63" height="58" rx="7" stroke="#242424" stroke-width="2"/>
<rect x="547" y="3" width="63" height="58" rx="7" stroke="#242424" stroke-width="2"/>
<rect x="633" y="3" width="63" height="58" rx="7" stroke="#242424" stroke-width="2"/>
<rect x="718" y="3" width="63" height="58" rx="7" stroke="#242424" stroke-width="2"/>
<rect x="141" y="98" width="63" height="58" rx="7" stroke="#242424" stroke-width="2"/>
<rect x="226" y="98" width="63" height="58" rx="7" stroke="#242424" stroke-width="2"/>
<rect x="311" y="98" width="63" height="58" rx="7" stroke="#242424" stroke-width="2"/>
<rect x="396" y="98" width="63" height="58" rx="7" stroke="#242424" stroke-width="2"/>
<rect x="482" y="98" width="63" height="58" rx="7" stroke="#242424" stroke-width="2"/>
<rect x="566" y="98" width="63" height="58" rx="7" stroke="#242424" stroke-width="2"/>
<rect x="652" y="98" width="63" height="58" rx="7" stroke="#242424" stroke-width="2"/>
<rect x="737" y="98" width="63" height="58" rx="7" stroke="#242424" stroke-width="2"/>
<rect x="141" y="192" width="63" height="58" rx="7" stroke="#242424" stroke-width="2"/>
<rect x="226" y="192" width="63" height="58" rx="7" stroke="#242424" stroke-width="2"/>
<rect x="311" y="192" width="63" height="58" rx="7" stroke="#242424" stroke-width="2"/>
<rect x="396" y="192" width="63" height="58" rx="7" stroke="#242424" stroke-width="2"/>
<rect x="482" y="192" width="63" height="58" rx="7" stroke="#242424" stroke-width="2"/>
<rect x="566" y="192" width="63" height="58" rx="7" stroke="#242424" stroke-width="2"/>
<rect x="652" y="192" width="63" height="58" rx="7" stroke="#242424" stroke-width="2"/>
<rect x="737" y="192" width="63" height="58" rx="7" stroke="#242424" stroke-width="2"/>
<rect x="822" y="192" width="63" height="58" rx="7" stroke="#242424" stroke-width="2"/>
<rect x="822" y="98" width="63" height="58" rx="7" stroke="#242424" stroke-width="2"/>
<rect x="174" y="287" width="63" height="58" rx="7" stroke="#242424" stroke-width="2"/>
<rect x="259" y="287" width="63" height="58" rx="7" stroke="#242424" stroke-width="2"/>
<rect x="344" y="287" width="63" height="58" rx="7" stroke="#242424" stroke-width="2"/>
<rect x="429" y="287" width="63" height="58" rx="7" stroke="#242424" stroke-width="2"/>
<rect x="515" y="287" width="63" height="58" rx="7" stroke="#242424" stroke-width="2"/>
<rect x="599" y="287" width="63" height="58" rx="7" stroke="#242424" stroke-width="2"/>
<rect x="685" y="287" width="63" height="58" rx="7" stroke="#242424" stroke-width="2"/>
<rect x="770" y="287" width="63" height="58" rx="7" stroke="#242424" stroke-width="2"/>
<rect x="803" y="3" width="63" height="58" rx="7" stroke="#242424" stroke-width="2"/>
<rect x="888" y="381" width="115" height="58" rx="7" stroke="#242424" stroke-width="2"/>
<rect x="770" y="381" width="96" height="58" rx="7" stroke="#242424" stroke-width="2"/>
<rect x="141" y="381" width="96" height="58" rx="7" stroke="#242424" stroke-width="2"/>
<rect x="855" y="287" width="148" height="58" rx="7" stroke="#242424" stroke-width="2"/>
<rect x="3" y="287" width="148" height="58" rx="7" stroke="#242424" stroke-width="2"/>
<path d="M141.32 37.2422L141.977 41.7422L142.938 37.6875L149.688 13.875H153.484L160.07 37.6875L161.008 41.8125L161.734 37.2188L167.031 13.875H171.555L163.281 48H159.18L152.148 23.1328L151.609 20.5312L151.07 23.1328L143.781 48H139.68L131.43 13.875H135.93L141.32 37.2422Z" fill="#BABABA"/>
<path d="M323.477 34.1953H315.461V48H310.938V13.875H322.234C326.078 13.875 329.031 14.75 331.094 16.5C333.172 18.25 334.211 20.7969 334.211 24.1406C334.211 26.2656 333.633 28.1172 332.477 29.6953C331.336 31.2734 329.742 32.4531 327.695 33.2344L335.711 47.7188V48H330.883L323.477 34.1953ZM315.461 30.5156H322.375C324.609 30.5156 326.383 29.9375 327.695 28.7812C329.023 27.625 329.688 26.0781 329.688 24.1406C329.688 22.0312 329.055 20.4141 327.789 19.2891C326.539 18.1641 324.727 17.5938 322.352 17.5781H315.461V30.5156Z" fill="#BABABA"/>
<path d="M419.539 17.5781H408.57V48H404.094V17.5781H393.148V13.875H419.539V17.5781Z" fill="#BABABA"/>
<path d="M438.156 136.523C437 138.18 435.383 139.422 433.305 140.25C431.242 141.062 428.836 141.469 426.086 141.469C423.305 141.469 420.836 140.82 418.68 139.523C416.523 138.211 414.852 136.352 413.664 133.945C412.492 131.539 411.891 128.75 411.859 125.578V122.602C411.859 117.461 413.055 113.477 415.445 110.648C417.852 107.82 421.227 106.406 425.57 106.406C429.133 106.406 432 107.32 434.172 109.148C436.344 110.961 437.672 113.539 438.156 116.883H433.656C432.812 112.367 430.125 110.109 425.594 110.109C422.578 110.109 420.289 111.172 418.727 113.297C417.18 115.406 416.398 118.469 416.383 122.484V125.273C416.383 129.102 417.258 132.148 419.008 134.414C420.758 136.664 423.125 137.789 426.109 137.789C427.797 137.789 429.273 137.602 430.539 137.227C431.805 136.852 432.852 136.219 433.68 135.328V127.664H425.781V124.008H438.156V136.523Z" fill="#BABABA"/>
<path d="M524.188 238H519.664L502.484 211.703V238H497.961V203.875H502.484L519.711 230.289V203.875H524.188V238Z" fill="#BABABA"/>
<path d="M664.789 48H660.289V13.875H664.789V48Z" fill="#BABABA"/>
</svg>
