<svg width="395" height="189" viewBox="0 0 395 189" fill="none" xmlns="http://www.w3.org/2000/svg">
<g clip-path="url(#clip0)">
<path d="M249.385 142.978C255.045 145.033 271.832 151.847 274.76 153.004C276.407 153.651 277.22 155.509 276.572 157.154C275.924 158.806 274.059 159.613 272.413 158.965C269.458 157.802 252.744 151.008 247.197 148.999C244.076 147.868 243.071 148.351 242.84 148.523C242.611 148.755 242.465 149.057 242.426 149.381C242.386 149.705 242.455 150.033 242.622 150.314C242.906 150.737 243.283 151.1 243.719 151.378C254.827 157.511 294.351 179.242 294.351 179.242C300.626 182.698 307.773 183.247 316.824 180.973C324.235 179.11 361.532 168.145 362.94 167.742C363.875 167.762 364.801 168.111 365.721 168.789C366.64 169.466 367.073 170.12 367.019 170.749C367.033 171.47 367.019 172.203 366.999 172.937C366.993 173.221 367.026 173.38 367.013 173.419C367.177 173.472 367.349 173.499 367.522 173.499L368.5 173.532C370.385 173.598 372.176 173.664 373.962 173.637C380.843 162.882 385.334 150.775 387.132 138.134C387.476 135.748 387.701 133.356 387.939 130.831L387.952 130.706C383.086 130.56 374.041 130.316 368.765 130.197L368.758 130.19C368.53 130.184 368.302 130.197 368.077 130.23C368.044 130.415 368.024 130.607 368.018 130.792C367.755 132.516 367.416 133.73 367 134.432C366.583 135.135 365.812 135.796 364.685 136.416C362.517 136.37 360.355 136.291 358.193 136.211C348.454 135.848 339.251 135.504 330.265 138.392C327.647 139.291 325.108 140.408 322.682 141.736C318.972 143.878 314.92 145.358 310.701 146.105C303.596 147.255 296.412 147.856 289.214 147.903C288.07 147.823 286.946 148.233 286.126 149.026C285.778 149.378 285.506 149.798 285.329 150.259C285.151 150.721 285.071 151.215 285.095 151.709C285.075 152.202 285.155 152.693 285.332 153.153C285.508 153.613 285.776 154.033 286.12 154.386C286.814 155.1 287.766 155.503 288.764 155.496C292.705 155.688 321.881 156.355 321.881 156.355V156.362C322.728 156.382 323.534 156.739 324.123 157.353C324.705 157.975 325.022 158.794 325.002 159.647C324.995 160.499 324.638 161.312 324.017 161.9C323.402 162.489 322.569 162.799 321.716 162.766C321.716 162.766 292.48 162.099 288.447 161.9C284.414 161.702 280.87 159.164 279.395 155.41C278.67 153.571 278.492 151.561 278.882 149.623C279.273 147.685 280.216 145.901 281.597 144.486C282.615 143.488 283.827 142.707 285.157 142.193C286.487 141.678 287.907 141.44 289.333 141.492C296.164 141.465 302.983 140.891 309.723 139.774C313.255 139.126 316.646 137.863 319.74 136.04C322.484 134.546 325.346 133.29 328.302 132.292C338.358 129.06 348.56 129.437 358.432 129.807C359.503 129.847 360.58 129.887 361.651 129.92C361.724 128.115 362.551 126.43 363.932 125.26C365.308 124.097 367.113 123.562 368.904 123.787C374.928 123.925 390.762 124.348 391.727 124.428L395 124.692L394.656 127.957C394.531 129.127 394.425 130.283 394.312 131.44C394.074 133.931 393.83 136.502 393.473 139.04C391.529 152.774 386.61 165.913 379.066 177.558C378.061 179.019 376.434 179.937 374.663 180.03C372.507 180.083 370.352 180.01 368.269 179.937L367.297 179.904C364.262 180.01 361.565 177.975 360.824 175.033C359.489 175.423 325.922 185.297 318.385 187.194V187.187C314.609 188.179 310.728 188.694 306.828 188.734C301.393 188.8 296.031 187.465 291.257 184.861C291.257 184.861 251.727 163.13 240.612 156.99C239.329 156.243 238.232 155.226 237.385 154.01C235.038 150.599 235.739 145.953 238.992 143.396C242.76 140.572 247.746 142.376 249.385 142.978V142.978Z" fill="white" fill-opacity="0.9"/>
<path d="M145.615 142.505C139.955 144.56 123.168 151.374 120.24 152.531C118.593 153.179 117.78 155.036 118.428 156.681C119.076 158.334 120.941 159.14 122.587 158.492C125.542 157.329 142.256 150.535 147.803 148.526C150.924 147.396 151.928 147.878 152.16 148.05C152.389 148.283 152.535 148.584 152.574 148.908C152.614 149.232 152.545 149.56 152.378 149.841C152.094 150.264 151.717 150.628 151.28 150.905C140.173 157.038 100.648 178.769 100.648 178.769C94.3742 182.226 87.2269 182.774 78.1762 180.501C70.7645 178.637 33.4682 167.673 32.0601 167.27C31.1254 167.29 30.1985 167.638 29.2794 168.316C28.3604 168.993 27.9274 169.647 27.9806 170.277C27.9674 170.997 27.9806 171.731 28.0005 172.464C28.0071 172.748 27.974 172.907 27.9872 172.947C27.8226 172.999 27.6509 173.026 27.4782 173.026L26.4996 173.059C24.6153 173.125 22.8235 173.191 21.0383 173.165C14.1572 162.41 9.66582 150.302 7.868 137.662C7.5242 135.276 7.2994 132.884 7.0614 130.359L7.0482 130.233C11.9143 130.088 20.9592 129.843 26.2352 129.724L26.2419 129.718C26.4696 129.711 26.6975 129.724 26.9229 129.757C26.9559 129.942 26.9758 130.134 26.9824 130.319C27.2447 132.043 27.584 133.257 28.0004 133.96C28.4169 134.663 29.1883 135.324 30.3146 135.944C32.4832 135.897 34.6453 135.818 36.8072 135.739C46.5462 135.375 55.7489 135.032 64.7348 137.92C67.3531 138.818 69.892 139.935 72.3184 141.264C76.0276 143.405 80.0804 144.886 84.2987 145.632C91.4043 146.783 98.588 147.384 105.786 147.43C106.93 147.351 108.054 147.76 108.874 148.554C109.222 148.905 109.494 149.325 109.671 149.787C109.849 150.249 109.929 150.742 109.905 151.237C109.925 151.729 109.845 152.22 109.668 152.681C109.492 153.141 109.224 153.56 108.88 153.913C108.186 154.627 107.234 155.03 106.236 155.024C102.295 155.215 73.1186 155.883 73.1186 155.883V155.889C72.2723 155.909 71.4656 156.266 70.8772 156.881C70.2954 157.502 69.978 158.322 69.9979 159.174C70.0045 160.027 70.3615 160.84 70.983 161.428C71.5979 162.016 72.431 162.327 73.284 162.294C73.284 162.294 102.52 161.626 106.553 161.428C110.586 161.23 114.13 158.692 115.605 154.938C116.33 153.098 116.508 151.089 116.118 149.15C115.727 147.212 114.784 145.428 113.403 144.013C112.384 143.015 111.173 142.235 109.843 141.72C108.513 141.205 107.093 140.967 105.667 141.019C98.8356 140.992 92.0169 140.418 85.2769 139.301C81.7448 138.654 78.3541 137.39 75.2602 135.567C72.5163 134.073 69.6535 132.818 66.6981 131.82C56.6418 128.588 46.4396 128.965 36.5684 129.335C35.4974 129.374 34.4197 129.414 33.3486 129.447C33.2759 127.643 32.4494 125.957 31.0676 124.788C29.6923 123.625 27.8873 123.089 26.0956 123.314C20.0723 123.453 4.2376 123.876 3.2728 123.955L0 124.219L0.343803 127.484C0.469403 128.654 0.575199 129.811 0.687599 130.967C0.925599 133.459 1.1703 136.03 1.5273 138.568C3.471 152.301 8.39021 165.44 15.934 177.086C16.939 178.546 18.5655 179.465 20.3374 179.557C22.4928 179.61 24.6483 179.537 26.7308 179.465L27.7028 179.432C30.7375 179.537 33.435 177.502 34.1755 174.561C35.5111 174.951 69.0783 184.825 76.6153 186.721V186.715C80.3906 187.706 84.2716 188.222 88.1724 188.261C93.6072 188.327 98.9693 186.992 103.743 184.388C103.743 184.388 143.273 162.658 154.388 156.518C155.671 155.771 156.768 154.753 157.615 153.537C159.962 150.127 159.261 145.481 156.008 142.923C152.24 140.099 147.254 141.904 145.615 142.505V142.505Z" fill="white" fill-opacity="0.9"/>
<path fill-rule="evenodd" clip-rule="evenodd" d="M223.148 69.7769C221.46 68.7124 219.946 67.381 218.259 66.0496C213.547 62.1457 207.592 57.2637 198.168 57.2637C188.744 57.2637 182.79 62.1456 178.078 66.0497C176.39 67.381 174.876 68.7124 173.189 69.7769C163.679 76.0769 158.168 86.1071 158.168 97.3797C158.168 116.64 176.123 132.264 198.168 132.264C220.214 132.264 238.168 116.64 238.168 97.3797C238.168 86.108 232.658 76.0771 223.148 69.7769Z" stroke="white" stroke-opacity="0.9" stroke-width="7"/>
<path d="M187.508 93.0642C191.195 92.5997 194.885 92.3674 198.578 92.3674C202.272 92.3674 205.962 92.5997 209.648 93.0642M179.308 113.604C185.659 115.789 192.049 116.881 198.479 116.881C204.909 116.881 211.365 115.789 217.848 113.604H179.308ZM178.488 102.955C185.178 104.047 191.875 104.594 198.578 104.594C205.282 104.594 211.979 104.047 218.668 102.955H178.488Z" stroke="white" stroke-opacity="0.9" stroke-width="5" stroke-linecap="round"/>
<path d="M180.128 82.4765C182.701 81.6265 185.707 80.2165 189.145 78.2464C194.302 75.2914 195.406 70.1892 198.605 70.1892C201.862 70.1892 204.121 76.3753 207.586 78.2464C209.896 79.4938 213.043 80.9038 217.028 82.4764" stroke="white" stroke-opacity="0.9" stroke-width="7" stroke-linecap="round"/>
<path d="M197.279 0V37.2637M124 30.2637L154.84 57.2637L124 30.2637ZM270.425 30.2637L240.088 57.2637L270.425 30.2637Z" stroke="white" stroke-opacity="0.9" stroke-width="4" stroke-linecap="round" stroke-linejoin="round"/>
</g>
<defs>
<clipPath id="clip0">
<rect width="395" height="188.736" fill="white"/>
</clipPath>
</defs>
</svg>
