<svg width="1002" height="438" viewBox="0 0 1002 438" fill="none" xmlns="http://www.w3.org/2000/svg">
<rect x="258" y="379" width="488" height="58" rx="7" stroke="#242424" stroke-width="2"/>
<rect x="1" y="379" width="115" height="58" rx="7" stroke="#242424" stroke-width="2"/>
<rect x="1" y="190" width="115" height="58" rx="7" stroke="#242424" stroke-width="2"/>
<rect x="1" y="96" width="115" height="58" rx="7" stroke="#242424" stroke-width="2"/>
<rect x="905" y="190" width="96" height="58" rx="7" stroke="#242424" stroke-width="2"/>
<rect x="886" y="1" width="115" height="58" rx="7" stroke="#242424" stroke-width="2"/>
<rect x="906" y="96" width="95" height="58" rx="7" stroke="#242424" stroke-width="2"/>
<rect x="1" y="1" width="95" height="58" rx="7" stroke="#242424" stroke-width="2"/>
<rect x="120" y="1" width="63" height="58" rx="7" stroke="#242424" stroke-width="2"/>
<rect x="205" y="1" width="63" height="58" rx="7" stroke="#242424" stroke-width="2"/>
<rect x="290" y="1" width="63" height="58" rx="7" stroke="#242424" stroke-width="2"/>
<rect x="375" y="1" width="63" height="58" rx="7" stroke="#242424" stroke-width="2"/>
<rect x="461" y="1" width="63" height="58" rx="7" stroke="#242424" stroke-width="2"/>
<rect x="545" y="1" width="63" height="58" rx="7" stroke="#242424" stroke-width="2"/>
<rect x="631" y="1" width="63" height="58" rx="7" stroke="#242424" stroke-width="2"/>
<rect x="716" y="1" width="63" height="58" rx="7" stroke="#242424" stroke-width="2"/>
<rect x="139" y="96" width="63" height="58" rx="7" stroke="#242424" stroke-width="2"/>
<rect x="224" y="96" width="63" height="58" rx="7" stroke="#242424" stroke-width="2"/>
<rect x="309" y="96" width="63" height="58" rx="7" stroke="#242424" stroke-width="2"/>
<rect x="394" y="96" width="63" height="58" rx="7" stroke="#242424" stroke-width="2"/>
<rect x="480" y="96" width="63" height="58" rx="7" stroke="#242424" stroke-width="2"/>
<rect x="564" y="96" width="63" height="58" rx="7" stroke="#242424" stroke-width="2"/>
<rect x="650" y="96" width="63" height="58" rx="7" stroke="#242424" stroke-width="2"/>
<rect x="735" y="96" width="63" height="58" rx="7" stroke="#242424" stroke-width="2"/>
<rect x="139" y="190" width="63" height="58" rx="7" stroke="#242424" stroke-width="2"/>
<rect x="224" y="190" width="63" height="58" rx="7" stroke="#242424" stroke-width="2"/>
<rect x="309" y="190" width="63" height="58" rx="7" stroke="#242424" stroke-width="2"/>
<rect x="394" y="190" width="63" height="58" rx="7" stroke="#242424" stroke-width="2"/>
<rect x="480" y="190" width="63" height="58" rx="7" stroke="#242424" stroke-width="2"/>
<rect x="564" y="190" width="63" height="58" rx="7" stroke="#242424" stroke-width="2"/>
<rect x="650" y="190" width="63" height="58" rx="7" stroke="#242424" stroke-width="2"/>
<rect x="735" y="190" width="63" height="58" rx="7" stroke="#242424" stroke-width="2"/>
<rect x="820" y="190" width="63" height="58" rx="7" stroke="#242424" stroke-width="2"/>
<rect x="820" y="96" width="63" height="58" rx="7" stroke="#242424" stroke-width="2"/>
<rect x="172" y="285" width="63" height="58" rx="7" stroke="#242424" stroke-width="2"/>
<rect x="257" y="285" width="63" height="58" rx="7" stroke="#242424" stroke-width="2"/>
<rect x="342" y="285" width="63" height="58" rx="7" stroke="#242424" stroke-width="2"/>
<rect x="427" y="285" width="63" height="58" rx="7" stroke="#242424" stroke-width="2"/>
<rect x="513" y="285" width="63" height="58" rx="7" stroke="#242424" stroke-width="2"/>
<rect x="597" y="285" width="63" height="58" rx="7" stroke="#242424" stroke-width="2"/>
<rect x="683" y="285" width="63" height="58" rx="7" stroke="#242424" stroke-width="2"/>
<rect x="768" y="285" width="63" height="58" rx="7" stroke="#242424" stroke-width="2"/>
<rect x="801" y="1" width="63" height="58" rx="7" stroke="#242424" stroke-width="2"/>
<rect x="886" y="379" width="115" height="58" rx="7" stroke="#242424" stroke-width="2"/>
<rect x="768" y="379" width="96" height="58" rx="7" stroke="#242424" stroke-width="2"/>
<rect x="139" y="379" width="96" height="58" rx="7" stroke="#242424" stroke-width="2"/>
<rect x="853" y="285" width="148" height="58" rx="7" stroke="#242424" stroke-width="2"/>
<rect x="1" y="285" width="148" height="58" rx="7" stroke="#242424" stroke-width="2"/>
</svg>
