<svg width="1000" height="436" viewBox="0 0 1000 436" fill="none" xmlns="http://www.w3.org/2000/svg">
<rect x="256" y="377" width="488" height="58" rx="7" stroke="white" stroke-width="2"/>
<rect x="1" y="377" width="115" height="58" rx="7" stroke="white" stroke-width="2"/>
<rect x="1" y="189" width="115" height="58" rx="7" stroke="white" stroke-width="2"/>
<rect x="1" y="95" width="115" height="58" rx="7" stroke="white" stroke-width="2"/>
<rect x="903" y="189" width="96" height="58" rx="7" stroke="white" stroke-width="2"/>
<rect x="884" y="1" width="115" height="58" rx="7" stroke="white" stroke-width="2"/>
<rect x="904" y="95" width="95" height="58" rx="7" stroke="white" stroke-width="2"/>
<rect x="1" y="1" width="95" height="58" rx="7" stroke="white" stroke-width="2"/>
<rect x="119" y="1" width="63" height="58" rx="7" stroke="white" stroke-width="2"/>
<rect x="204" y="1" width="63" height="58" rx="7" stroke="white" stroke-width="2"/>
<rect x="289" y="1" width="63" height="58" rx="7" stroke="white" stroke-width="2"/>
<rect x="374" y="1" width="63" height="58" rx="7" stroke="white" stroke-width="2"/>
<rect x="459" y="1" width="63" height="58" rx="7" stroke="white" stroke-width="2"/>
<rect x="544" y="1" width="63" height="58" rx="7" stroke="white" stroke-width="2"/>
<rect x="629" y="1" width="63" height="58" rx="7" stroke="white" stroke-width="2"/>
<rect x="714" y="1" width="63" height="58" rx="7" stroke="white" stroke-width="2"/>
<rect x="138" y="95" width="63" height="58" rx="7" stroke="white" stroke-width="2"/>
<rect x="223" y="95" width="63" height="58" rx="7" stroke="white" stroke-width="2"/>
<rect x="308" y="95" width="63" height="58" rx="7" stroke="white" stroke-width="2"/>
<rect x="393" y="95" width="63" height="58" rx="7" stroke="white" stroke-width="2"/>
<rect x="478" y="95" width="63" height="58" rx="7" stroke="white" stroke-width="2"/>
<rect x="563" y="95" width="63" height="58" rx="7" stroke="white" stroke-width="2"/>
<rect x="648" y="95" width="63" height="58" rx="7" stroke="white" stroke-width="2"/>
<rect x="733" y="95" width="63" height="58" rx="7" stroke="white" stroke-width="2"/>
<rect x="138" y="189" width="63" height="58" rx="7" stroke="white" stroke-width="2"/>
<rect x="223" y="189" width="63" height="58" rx="7" stroke="white" stroke-width="2"/>
<rect x="308" y="189" width="63" height="58" rx="7" stroke="white" stroke-width="2"/>
<rect x="393" y="189" width="63" height="58" rx="7" stroke="white" stroke-width="2"/>
<rect x="478" y="189" width="63" height="58" rx="7" stroke="white" stroke-width="2"/>
<rect x="563" y="189" width="63" height="58" rx="7" stroke="white" stroke-width="2"/>
<rect x="648" y="189" width="63" height="58" rx="7" stroke="white" stroke-width="2"/>
<rect x="733" y="189" width="63" height="58" rx="7" stroke="white" stroke-width="2"/>
<rect x="818" y="189" width="63" height="58" rx="7" stroke="white" stroke-width="2"/>
<rect x="818" y="95" width="63" height="58" rx="7" stroke="white" stroke-width="2"/>
<rect x="171" y="283" width="63" height="58" rx="7" stroke="white" stroke-width="2"/>
<rect x="256" y="283" width="63" height="58" rx="7" stroke="white" stroke-width="2"/>
<rect x="341" y="283" width="63" height="58" rx="7" stroke="white" stroke-width="2"/>
<rect x="426" y="283" width="63" height="58" rx="7" stroke="white" stroke-width="2"/>
<rect x="511" y="283" width="63" height="58" rx="7" stroke="white" stroke-width="2"/>
<rect x="596" y="283" width="63" height="58" rx="7" stroke="white" stroke-width="2"/>
<rect x="681" y="283" width="63" height="58" rx="7" stroke="white" stroke-width="2"/>
<rect x="766" y="283" width="63" height="58" rx="7" stroke="white" stroke-width="2"/>
<rect x="799" y="1" width="63" height="58" rx="7" stroke="white" stroke-width="2"/>
<rect x="884" y="377" width="115" height="58" rx="7" stroke="white" stroke-width="2"/>
<rect x="766" y="377" width="96" height="58" rx="7" stroke="white" stroke-width="2"/>
<rect x="138" y="377" width="96" height="58" rx="7" stroke="white" stroke-width="2"/>
<rect x="851" y="283" width="148" height="58" rx="7" stroke="white" stroke-width="2"/>
<rect x="1" y="283" width="148" height="58" rx="7" stroke="white" stroke-width="2"/>
</svg>
