<svg width="101" height="101" viewBox="0 0 101 101" fill="none" xmlns="http://www.w3.org/2000/svg">
<path d="M101 0H0V101H101V0Z" fill="white"/>
<path d="M101 0H61V40H101V0Z" fill="#57A345"/>
<path d="M101 61H61V101H101V61Z" fill="#882BA7"/>
<path d="M40 61H0V101H40V61Z" fill="#F19413"/>
<path d="M40 0H0V40H40V0Z" fill="#4087F1"/>
<path d="M61.5 39.5H40.5V60.5H61.5V39.5Z" fill="#949494" stroke="black"/>
<path d="M61.5 0V40" stroke="black"/>
<path d="M61.5 61V101" stroke="black"/>
<path d="M40.5 0V40" stroke="black"/>
<path d="M40.5 61V101" stroke="black"/>
<path d="M61 39.5H101" stroke="black"/>
<path d="M61 60.5H101" stroke="black"/>
<path d="M1 39.5H41" stroke="black"/>
<path d="M0 60.5H40" stroke="black"/>
</svg>
