<svg width="183" height="191" viewBox="0 0 183 191" fill="none" xmlns="http://www.w3.org/2000/svg">
<path d="M145.718 144.505C140.059 146.56 123.271 153.374 120.343 154.531C118.697 155.179 117.884 157.036 118.532 158.681C119.18 160.334 121.044 161.14 122.69 160.492C125.646 159.329 142.36 152.535 147.906 150.526C151.027 149.396 152.032 149.878 152.263 150.05C152.492 150.283 152.638 150.584 152.678 150.908C152.717 151.233 152.648 151.561 152.482 151.841C152.197 152.264 151.82 152.628 151.384 152.905C140.276 159.038 100.752 180.769 100.752 180.769C94.4777 184.226 87.3304 184.774 78.2797 182.501C70.868 180.637 33.5717 169.673 32.1636 169.27C31.2289 169.29 30.302 169.639 29.3829 170.316C28.4639 170.994 28.0309 171.647 28.0841 172.277C28.0709 172.997 28.0841 173.731 28.104 174.464C28.1106 174.749 28.0775 174.907 28.0907 174.947C27.9262 174.999 27.7545 175.026 27.5817 175.026L26.6031 175.059C24.7188 175.125 22.927 175.191 21.1418 175.165C14.2607 164.41 9.76934 152.303 7.97151 139.662C7.62771 137.276 7.40292 134.884 7.16492 132.359L7.15172 132.233C12.0178 132.088 21.0627 131.843 26.3387 131.724L26.3454 131.718C26.5731 131.711 26.801 131.724 27.0264 131.757C27.0594 131.942 27.0793 132.134 27.0859 132.319C27.3482 134.043 27.6875 135.257 28.1039 135.96C28.5204 136.663 29.2918 137.324 30.4181 137.944C32.5867 137.897 34.7488 137.818 36.9107 137.739C46.6497 137.375 55.8524 137.032 64.8383 139.92C67.4566 140.818 69.9955 141.935 72.4219 143.264C76.1311 145.405 80.1839 146.886 84.4022 147.632C91.5079 148.783 98.6915 149.384 105.89 149.43C107.033 149.351 108.157 149.76 108.977 150.554C109.326 150.905 109.597 151.325 109.775 151.787C109.952 152.249 110.032 152.742 110.009 153.237C110.029 153.729 109.948 154.22 109.772 154.681C109.596 155.141 109.328 155.56 108.984 155.913C108.29 156.627 107.338 157.03 106.339 157.024C102.399 157.215 73.2221 157.883 73.2221 157.883V157.889C72.3758 157.909 71.5691 158.266 70.9807 158.881C70.3989 159.502 70.0815 160.322 70.1014 161.174C70.108 162.027 70.465 162.84 71.0865 163.428C71.7014 164.016 72.5345 164.327 73.3875 164.294C73.3875 164.294 102.623 163.626 106.657 163.428C110.69 163.23 114.234 160.692 115.708 156.938C116.434 155.099 116.612 153.089 116.221 151.15C115.831 149.212 114.888 147.428 113.507 146.013C112.488 145.015 111.277 144.235 109.947 143.72C108.617 143.205 107.196 142.967 105.771 143.019C98.9391 142.993 92.1204 142.418 85.3804 141.301C81.8483 140.654 78.4576 139.39 75.3637 137.567C72.6198 136.073 69.757 134.818 66.8016 133.82C56.7453 130.588 46.5431 130.965 36.6719 131.335C35.6009 131.374 34.5232 131.414 33.4521 131.447C33.3794 129.643 32.5529 127.957 31.1711 126.788C29.7958 125.625 27.9908 125.089 26.1991 125.314C20.1758 125.453 4.34111 125.876 3.37631 125.955L0.103516 126.219L0.447319 129.484C0.572919 130.654 0.678715 131.811 0.791115 132.967C1.02911 135.459 1.27381 138.03 1.63081 140.568C3.57451 154.301 8.49372 167.44 16.0375 179.086C17.0425 180.546 18.669 181.465 20.4409 181.557C22.5963 181.61 24.7518 181.537 26.8343 181.465L27.8063 181.432C30.841 181.538 33.5385 179.502 34.279 176.561C35.6146 176.951 69.1818 186.825 76.7188 188.721V188.715C80.4941 189.706 84.3751 190.222 88.2759 190.261C93.7107 190.327 99.0728 188.992 103.846 186.388C103.846 186.388 143.377 164.658 154.492 158.518C155.775 157.771 156.872 156.753 157.718 155.537C160.065 152.127 159.365 147.481 156.112 144.923C152.343 142.099 147.358 143.904 145.718 144.505V144.505Z" fill="white" fill-opacity="0.9"/>
<path fill-rule="evenodd" clip-rule="evenodd" d="M133.083 71.7769C131.396 70.7124 129.882 69.381 128.194 68.0496C123.482 64.1457 117.528 59.2637 108.104 59.2637C98.6795 59.2637 92.7248 64.1456 88.0128 68.0497C86.3254 69.381 84.8114 70.7124 83.1239 71.7769C73.6137 78.0769 68.1035 88.1071 68.1035 99.3797C68.1035 118.64 86.0582 134.264 108.104 134.264C130.149 134.264 148.104 118.64 148.104 99.3797C148.104 88.108 142.593 78.0771 133.083 71.7769Z" stroke="white" stroke-opacity="0.9" stroke-width="7"/>
<path d="M97.4435 95.0642C101.13 94.5997 104.82 94.3674 108.514 94.3674C112.207 94.3674 115.897 94.5997 119.584 95.0642M89.2435 115.604C95.594 117.789 101.984 118.881 108.414 118.881C114.844 118.881 121.301 117.789 127.784 115.604H89.2435ZM88.4235 104.955C95.1133 106.047 101.81 106.594 108.514 106.594C115.217 106.594 121.914 106.047 128.604 104.955H88.4235Z" stroke="white" stroke-opacity="0.9" stroke-width="5" stroke-linecap="round"/>
<path d="M90.0635 84.4765C92.6365 83.6265 95.6419 82.2165 99.0798 80.2464C104.237 77.2914 105.341 72.1892 108.54 72.1892C111.797 72.1892 114.056 78.3753 117.521 80.2464C119.831 81.4938 122.978 82.9038 126.964 84.4764" stroke="white" stroke-opacity="0.9" stroke-width="7" stroke-linecap="round"/>
<path d="M107.215 2V39.2637M33.9352 32.2637L64.7751 59.2637L33.9352 32.2637ZM180.36 32.2637L150.024 59.2637L180.36 32.2637Z" stroke="white" stroke-opacity="0.9" stroke-width="4" stroke-linecap="round" stroke-linejoin="round"/>
</svg>
