<svg width="183" height="191" viewBox="0 0 183 191" fill="none" xmlns="http://www.w3.org/2000/svg">
<path d="M145.718 144.769C140.059 146.824 123.271 153.638 120.343 154.795C118.697 155.442 117.884 157.3 118.532 158.945C119.18 160.597 121.044 161.404 122.69 160.756C125.646 159.593 142.36 152.799 147.906 150.79C151.027 149.66 152.032 150.142 152.263 150.314C152.492 150.546 152.638 150.848 152.678 151.172C152.717 151.496 152.648 151.824 152.482 152.105C152.197 152.528 151.82 152.891 151.384 153.169C140.276 159.302 100.752 181.033 100.752 181.033C94.4777 184.49 87.3304 185.038 78.2797 182.764C70.868 180.901 33.5717 169.936 32.1636 169.533C31.2289 169.553 30.302 169.902 29.3829 170.58C28.4639 171.257 28.0309 171.911 28.0841 172.54C28.0709 173.261 28.0841 173.994 28.104 174.728C28.1106 175.012 28.0775 175.171 28.0907 175.21C27.9262 175.263 27.7545 175.29 27.5817 175.29L26.6031 175.323C24.7188 175.389 22.927 175.455 21.1418 175.428C14.2607 164.673 9.76934 152.566 7.97151 139.925C7.62771 137.54 7.40292 135.147 7.16492 132.623L7.15172 132.497C12.0178 132.352 21.0627 132.107 26.3387 131.988L26.3454 131.981C26.5731 131.975 26.801 131.988 27.0264 132.021C27.0594 132.206 27.0793 132.398 27.0859 132.583C27.3482 134.307 27.6875 135.521 28.1039 136.224C28.5204 136.926 29.2918 137.588 30.4181 138.207C32.5867 138.161 34.7488 138.082 36.9107 138.002C46.6497 137.639 55.8524 137.295 64.8383 140.183C67.4566 141.082 69.9955 142.199 72.4219 143.528C76.1311 145.669 80.1839 147.149 84.4022 147.896C91.5079 149.046 98.6915 149.647 105.89 149.694C107.033 149.614 108.157 150.024 108.977 150.817C109.326 151.169 109.597 151.589 109.775 152.05C109.952 152.512 110.032 153.006 110.009 153.5C110.029 153.993 109.948 154.484 109.772 154.944C109.596 155.404 109.328 155.824 108.984 156.177C108.29 156.891 107.338 157.294 106.339 157.287C102.399 157.479 73.2221 158.147 73.2221 158.147V158.153C72.3758 158.173 71.5691 158.53 70.9807 159.145C70.3989 159.766 70.0815 160.585 70.1014 161.438C70.108 162.29 70.465 163.103 71.0865 163.692C71.7014 164.28 72.5345 164.59 73.3875 164.557C73.3875 164.557 102.623 163.89 106.657 163.692C110.69 163.493 114.234 160.955 115.708 157.202C116.434 155.362 116.612 153.352 116.221 151.414C115.831 149.476 114.888 147.692 113.507 146.277C112.488 145.279 111.277 144.498 109.947 143.984C108.617 143.469 107.196 143.231 105.771 143.283C98.9391 143.256 92.1204 142.682 85.3804 141.565C81.8483 140.918 78.4576 139.654 75.3637 137.831C72.6198 136.337 69.757 135.081 66.8016 134.083C56.7453 130.852 46.5431 131.228 36.6719 131.598C35.6009 131.638 34.5232 131.678 33.4521 131.711C33.3794 129.907 32.5529 128.221 31.1711 127.051C29.7958 125.888 27.9908 125.353 26.1991 125.578C20.1758 125.716 4.34111 126.139 3.37631 126.219L0.103516 126.483L0.447319 129.748C0.572919 130.918 0.678715 132.074 0.791115 133.231C1.02911 135.723 1.27381 138.293 1.63081 140.831C3.57451 154.565 8.49372 167.704 16.0375 179.349C17.0425 180.81 18.669 181.728 20.4409 181.821C22.5963 181.874 24.7518 181.801 26.8343 181.728L27.8063 181.695C30.841 181.801 33.5385 179.766 34.279 176.824C35.6146 177.214 69.1818 187.088 76.7188 188.985V188.979C80.4941 189.97 84.3751 190.485 88.2759 190.525C93.7107 190.591 99.0728 189.256 103.846 186.652C103.846 186.652 143.377 164.921 154.492 158.781C155.775 158.034 156.872 157.017 157.718 155.801C160.065 152.39 159.365 147.744 156.112 145.187C152.343 142.363 147.358 144.167 145.718 144.769V144.769Z" fill="black" fill-opacity="0.9"/>
<path fill-rule="evenodd" clip-rule="evenodd" d="M133.083 72.0406C131.396 70.9761 129.882 69.6447 128.194 68.3133C123.482 64.4094 117.528 59.5274 108.104 59.5274C98.6795 59.5274 92.7248 64.4093 88.0128 68.3134C86.3254 69.6447 84.8114 70.9761 83.1239 72.0406C73.6137 78.3406 68.1035 88.3708 68.1035 99.6434C68.1035 118.904 86.0582 134.527 108.104 134.527C130.149 134.527 148.104 118.904 148.104 99.6434C148.104 88.3717 142.593 78.3408 133.083 72.0406Z" stroke="black" stroke-opacity="0.9" stroke-width="7"/>
<path d="M97.4435 95.3279C101.13 94.8634 104.82 94.6311 108.514 94.6311C112.207 94.6311 115.897 94.8634 119.584 95.3279M89.2435 115.868C95.594 118.052 101.984 119.144 108.414 119.144C114.844 119.144 121.301 118.052 127.784 115.868H89.2435ZM88.4235 105.219C95.1133 106.311 101.81 106.857 108.514 106.857C115.217 106.857 121.914 106.311 128.604 105.219H88.4235Z" stroke="black" stroke-opacity="0.9" stroke-width="5" stroke-linecap="round"/>
<path d="M90.0635 84.7402C92.6365 83.8902 95.6419 82.4802 99.0798 80.5101C104.237 77.5551 105.341 72.4529 108.54 72.4529C111.797 72.4529 114.056 78.639 117.521 80.5101C119.831 81.7575 122.978 83.1675 126.964 84.7401" stroke="black" stroke-opacity="0.9" stroke-width="7" stroke-linecap="round"/>
<path d="M107.215 2.26367V39.5274M33.9352 32.5274L64.7751 59.5274L33.9352 32.5274ZM180.36 32.5274L150.024 59.5274L180.36 32.5274Z" stroke="black" stroke-opacity="0.9" stroke-width="4" stroke-linecap="round" stroke-linejoin="round"/>
</svg>
